<svg id="Layer_1" data-name="Layer 1" xmlns="http://www.w3.org/2000/svg" viewBox="0 0 1717.43 1717.43"><path d="M1617.11,2112.79q0,37.5-3.15,74.24-2.49,28.68-6.78,56.85-4.56,29.82-11.18,58.92v0q-4.32,19.16-9.5,38A847.39,847.39,0,0,1,1549.22,2448q-4.83,11.37-10,22.58a845.37,845.37,0,0,1-43.51,82.61,862.4,862.4,0,0,1-166.27,200.93q-10.59,9.42-21.49,18.53A855.13,855.13,0,0,1,758.4,2971.5c-474.27,0-858.72-384.45-858.72-858.71s384.45-858.72,858.72-858.72a855,855,0,0,1,533.94,186.17q10.67,8.44,21.07,17.29a864.55,864.55,0,0,1,94.43,93.47h0A855.37,855.37,0,0,1,1617.11,2112.79Z" transform="translate(100.32 -1254.07)" fill="#f2f2f2"/></svg>